<?xml version="1.0" ?><svg id="Layer_1" style="enable-background:new 0 0 176 192;" version="1.1" viewBox="0 0 176 192" xml:space="preserve" xmlns="http://www.w3.org/2000/svg" xmlns:xlink="http://www.w3.org/1999/xlink"><style type="text/css">
	.st0{fill:#F6B704;}
	.st1{fill:#E54335;}
	.st2{fill:#4280EF;}
	.st3{fill:#34A353;}
</style><g><path class="st0" d="M45.6,49.8C69,49.8,88,68.8,88,92.2v3.9H7.1c-2.1,0-3.8-1.7-3.9-3.9C3.2,68.8,22.2,49.8,45.6,49.8z"/><path class="st1" d="M134.2,53.6c0,23.4-19,42.4-42.4,42.4H88V15.1c0-2.1,1.7-3.9,3.8-3.9C115.3,11.2,134.2,30.2,134.2,53.6   L134.2,53.6z"/><path class="st2" d="M130.4,142.3c-23.4,0-42.4-19-42.4-42.4V96h80.9c2.1,0,3.9,1.7,3.9,3.8C172.8,123.3,153.8,142.3,130.4,142.3z"/><path class="st3" d="M41.8,138.4c0-23.4,19-42.4,42.4-42.4H88v80.9c0,2.1-1.7,3.8-3.9,3.9C60.7,180.8,41.8,161.8,41.8,138.4z"/></g></svg>